<svg version="1.1" id="Layer_1" xmlns="http://www.w3.org/2000/svg" xmlns:xlink="http://www.w3.org/1999/xlink" x="0px" y="0px"
	 width="100%" viewBox="0 0 1024 1024" enable-background="new 0 0 1024 1024" xml:space="preserve">
<path fill="#000000" opacity="1.000000" stroke="none" 
	d="
M394.689026,367.981293 
	C397.680206,353.422699 400.774994,339.322205 403.519073,325.153778 
	C404.333191,320.950226 406.333405,318.950806 410.488373,319.005920 
	C424.806122,319.195923 439.126678,318.539154 453.448090,319.415222 
	C457.524506,319.664581 458.766022,321.385437 458.347137,325.036957 
	C456.926392,337.421570 454.064087,349.549652 451.793488,361.782990 
	C441.041290,419.712891 428.228882,477.222717 416.515411,534.956543 
	C415.229889,541.292542 414.144684,547.661377 412.501678,553.925598 
	C411.295593,558.524109 408.439301,560.411255 403.775848,560.374634 
	C391.782013,560.280518 379.786682,560.394104 367.792206,560.350220 
	C361.576050,560.327454 360.373688,558.570557 361.408264,552.279053 
	C361.775085,550.048157 363.126343,547.884460 362.035400,544.807434 
	C359.398132,546.762634 356.947418,548.614319 354.461273,550.417114 
	C336.463074,563.468079 316.393250,567.796753 294.864197,562.947632 
	C270.407837,557.439270 256.453918,540.560974 253.208435,516.710815 
	C247.982956,478.310028 256.409851,442.661133 282.640106,413.109344 
	C299.967468,393.587830 322.816742,385.714508 348.927887,386.419006 
	C363.033844,386.799561 375.823059,390.168365 387.663605,399.573273 
	C392.036438,389.239014 392.490967,378.613007 394.689026,367.981293 
M340.040833,433.426880 
	C332.949219,434.894287 327.148468,438.508606 322.203308,443.760651 
	C311.273102,455.369202 306.940979,469.704254 305.450317,485.027435 
	C304.697754,492.763733 304.318848,500.744659 309.026642,507.751373 
	C316.788635,519.303650 327.718109,522.351013 340.856995,519.703003 
	C351.155334,517.627380 359.605621,512.200256 367.350677,505.449188 
	C371.337372,501.974121 370.291626,496.835114 371.231293,492.442200 
	C374.213226,478.501587 376.633881,464.441437 379.565399,450.489227 
	C380.649078,445.331665 379.318878,442.212616 374.489563,439.777130 
	C363.833832,434.403381 352.883392,431.318024 340.040833,433.426880 
z"/>
<path fill="#000000" opacity="1.000000" stroke="none" 
	d="
M717.834717,531.621399 
	C716.249695,539.524536 714.767090,547.017090 713.366455,554.525024 
	C712.606079,558.600891 710.389648,560.447266 706.113770,560.401672 
	C693.283142,560.264648 680.450012,560.386108 667.617981,560.350220 
	C661.599548,560.333374 659.794739,558.197632 660.923462,552.327820 
	C665.560364,528.212891 670.253418,504.108734 674.925903,480.000671 
	C677.672241,465.830841 680.326721,451.642151 683.234070,437.505463 
	C683.910034,434.218964 682.783447,433.179749 679.815918,433.178436 
	C674.817017,433.176208 669.817993,433.187439 664.819153,433.165375 
	C658.846497,433.139008 657.269226,431.346619 658.429260,425.606171 
	C660.401794,415.845398 662.658875,406.139221 664.465576,396.349060 
	C665.413757,391.210907 668.200867,389.384521 673.159424,389.624207 
	C677.648376,389.841156 682.197876,389.281921 686.644958,389.763763 
	C691.684509,390.309784 692.834839,387.515625 693.589539,383.538635 
	C694.857788,376.855865 695.851257,370.057312 697.871399,363.592194 
	C705.704346,338.524048 722.522705,323.557526 748.723083,319.560486 
	C761.393250,317.627594 773.905884,318.353027 786.264221,321.747955 
	C792.297424,323.405365 793.047302,324.600647 791.742920,330.585480 
	C789.974365,338.699951 788.143311,346.801117 786.426025,354.926361 
	C785.458313,359.504791 782.497070,360.911346 778.306824,360.044128 
	C773.503845,359.050140 768.634888,358.776428 763.931274,359.787170 
	C755.892578,361.514618 751.143005,367.238068 748.230591,374.559387 
	C746.401062,379.158539 744.983521,383.910645 745.316223,389.679108 
	C753.955688,389.679108 762.409180,389.665466 770.862610,389.683502 
	C777.364868,389.697418 777.505066,389.741760 776.333069,395.918243 
	C774.291443,406.677887 771.951111,417.381348 769.961304,428.150024 
	C769.247070,432.014862 767.397339,433.339417 763.511414,433.203400 
	C756.188110,432.947113 748.848572,433.190338 741.516541,433.131012 
	C738.494629,433.106567 736.845947,433.796783 736.169678,437.377533 
	C730.256836,468.686371 724.074097,499.944244 717.834717,531.621399 
z"/>
<path fill="#000000" opacity="1.000000" stroke="none" 
	d="
M327.654968,669.256775 
	C421.786224,695.663452 517.092896,712.275391 615.534180,715.101501 
	C612.660889,716.909729 610.269287,717.069092 607.926575,717.277039 
	C577.220215,720.002563 546.442810,721.293457 515.640015,720.231750 
	C492.550720,719.435913 469.499390,717.803528 446.474152,715.564514 
	C398.692993,710.917969 351.915741,701.310181 305.840240,688.169983 
	C268.489014,677.517822 233.035873,662.645813 201.255753,639.749390 
	C179.272079,623.910889 162.472229,604.343994 154.307404,578.112183 
	C153.033966,574.020935 150.542709,571.470032 146.735367,569.437012 
	C135.025681,563.184387 123.355560,557.165710 113.821312,547.228821 
	C97.225357,529.932007 97.207932,500.295593 107.599754,483.549713 
	C112.487572,475.673309 119.954880,471.101868 128.014191,467.304657 
	C131.085480,465.857605 132.078796,464.238281 131.024994,460.690308 
	C120.492706,425.228851 144.741760,401.323395 171.454559,394.787445 
	C201.389130,387.463257 227.092407,402.930237 235.406754,432.329132 
	C235.932281,434.187317 236.575455,436.012238 237.308746,438.305664 
	C234.245071,438.195740 233.707397,435.942230 232.728561,434.503387 
	C223.747940,421.302399 211.066238,413.618256 195.403793,413.683472 
	C162.014252,413.822479 143.446503,442.526215 156.289963,471.051422 
	C158.400528,475.738922 160.944321,480.170044 165.591583,484.862335 
	C160.463913,484.405396 156.778854,483.533173 153.199844,483.851898 
	C137.363266,485.262024 129.428299,493.773102 127.244080,509.757050 
	C124.804749,527.607910 134.087143,539.870972 145.757462,551.182617 
	C151.540298,556.787659 158.341995,561.010925 165.440399,564.745239 
	C167.241318,565.692688 168.774963,566.762268 169.884888,568.577148 
	C187.056488,596.654968 211.705124,616.566772 239.938019,632.537537 
	C267.604401,648.187744 297.054688,659.583801 327.654968,669.256775 
z"/>
<path fill="#000000" opacity="1.000000" stroke="none" 
	d="
M778.875977,424.372253 
	C780.858154,414.842712 782.821899,405.758759 784.616699,396.641541 
	C785.624146,391.523621 788.465515,389.525818 793.718811,389.582764 
	C806.339355,389.719513 806.346375,389.544769 808.903564,377.294800 
	C810.632629,369.011902 812.461304,360.747192 814.013794,352.431061 
	C814.761108,348.427887 816.763977,346.877594 820.838623,346.929382 
	C834.164856,347.098816 847.494568,346.974060 860.822571,347.040253 
	C866.638916,347.069153 867.550903,348.192017 866.407410,353.905701 
	C864.453186,363.670166 862.264282,373.388916 860.406921,383.171112 
	C859.187561,389.593079 859.371094,389.640594 865.757935,389.655060 
	C873.588318,389.672760 881.419617,389.598450 889.248840,389.695709 
	C894.105103,389.756012 895.400391,391.447784 894.402405,396.290588 
	C892.258057,406.696350 889.865417,417.054077 887.915283,427.495148 
	C887.123535,431.734314 885.277466,433.319885 880.921387,433.169098 
	C872.601562,432.881165 864.259277,433.275757 855.935913,433.042633 
	C851.975220,432.931702 850.312683,434.553101 849.586426,438.260193 
	C845.310791,460.084747 840.812622,481.865906 836.577637,503.698181 
	C833.709656,518.483032 842.747864,526.588379 857.589294,523.067078 
	C862.085083,522.000427 866.004639,519.490601 871.258179,517.792725 
	C869.024353,527.889465 866.263000,536.978516 865.156921,546.264648 
	C863.893005,556.875916 857.918945,561.212585 848.277039,563.172668 
	C836.069885,565.654297 823.893677,566.338745 811.623169,564.373047 
	C786.751648,560.388611 777.921448,539.668701 781.256348,520.517212 
	C785.950317,493.560455 791.925049,466.826843 797.328186,439.992981 
	C797.716370,438.064972 797.908875,436.097565 798.218201,433.970947 
	C794.320496,432.466095 790.482727,433.212616 786.746216,433.170715 
	C779.218323,433.086334 778.492615,432.421814 778.875977,424.372253 
z"/>
<path fill="#000000" opacity="1.000000" stroke="none" 
	d="
M708.396973,690.579102 
	C694.005676,692.815735 679.981079,694.416870 665.884705,695.355774 
	C640.950134,697.016541 615.989868,697.859680 591.000427,697.322266 
	C571.197815,696.896484 551.443054,695.708435 531.747803,693.478210 
	C515.400269,691.627075 498.951141,690.566284 482.663696,688.312561 
	C442.645996,682.775208 403.073944,674.943481 364.163757,663.925903 
	C329.220947,654.031677 294.556274,643.366211 262.179443,626.539673 
	C240.528397,615.287354 219.409561,603.150818 203.693268,583.793274 
	C192.976440,570.593567 186.421127,555.768738 187.670273,538.305542 
	C188.554398,525.944885 194.327881,515.617981 201.339844,505.135529 
	C203.215408,507.864990 201.670349,509.846283 201.335770,511.747894 
	C197.620758,532.863770 205.125549,550.442871 218.895065,565.704041 
	C233.875946,582.307800 252.735413,593.609253 272.692108,603.184570 
	C311.436096,621.774292 352.337616,634.096497 393.826599,644.675354 
	C433.763885,654.858582 474.162170,662.717773 514.921753,668.816223 
	C538.904419,672.404541 562.958923,675.269531 587.071533,677.841919 
	C631.359802,682.566711 675.764282,683.279236 720.215393,682.502869 
	C728.790466,682.353088 737.449524,681.516357 745.959106,679.866699 
	C747.622375,679.544250 749.420227,678.660339 752.508362,680.392517 
	C737.490173,685.049744 723.332703,688.457703 708.396973,690.579102 
z"/>
<path fill="#000000" opacity="1.000000" stroke="none" 
	d="
M539.883057,440.924683 
	C528.962463,444.605194 520.297607,450.852539 513.272095,459.414490 
	C510.126740,463.247742 510.432983,468.195282 509.534363,472.645233 
	C504.210297,499.010620 499.242188,525.447693 494.078033,551.845703 
	C492.534576,559.735413 491.611053,560.359314 483.429535,560.360046 
	C471.269684,560.361145 459.109833,560.377563 446.950012,560.361633 
	C439.338074,560.351685 438.272430,559.034973 439.842560,551.419434 
	C443.695190,532.733093 447.700806,514.077698 451.445160,495.369934 
	C457.922913,463.005371 464.246674,430.610077 470.641235,398.228851 
	C472.140961,390.634430 473.277374,389.669342 480.831726,389.659454 
	C492.658386,389.643921 504.485199,389.635803 516.311829,389.671448 
	C523.334351,389.692627 524.841309,391.645935 523.757141,398.477875 
	C523.224182,401.836151 521.581665,405.108551 522.479370,408.757690 
	C525.222290,408.822876 526.291260,406.636383 527.776123,405.251801 
	C541.154602,392.776917 556.708252,385.953888 575.240173,386.697479 
	C583.159668,387.015289 584.277344,388.495087 582.759277,396.156219 
	C580.210754,409.017334 577.760437,421.897919 575.286926,434.773804 
	C574.757507,437.529846 574.253540,440.054260 570.345703,439.268951 
	C560.204895,437.231079 550.175720,438.110535 539.883057,440.924683 
z"/>
<path fill="#000000" opacity="1.000000" stroke="none" 
	d="
M567.989014,552.393982 
	C578.301270,500.887451 588.512573,449.805267 598.681519,398.714630 
	C600.315430,390.505432 601.185669,389.667999 609.428406,389.662140 
	C621.590637,389.653534 633.752930,389.646301 645.915100,389.672699 
	C652.246521,389.686462 653.466064,391.009338 652.292969,397.046326 
	C645.898132,429.956757 639.441589,462.855255 632.998230,495.756287 
	C629.425171,514.001038 625.880371,532.251404 622.236633,550.482056 
	C620.331055,560.016357 619.814819,560.356079 610.146606,560.355164 
	C598.317627,560.354065 586.488342,560.389771 574.659729,560.320923 
	C568.482422,560.284973 567.584473,559.203003 567.989014,552.393982 
z"/>
<path fill="#000000" opacity="1.000000" stroke="none" 
	d="
M614.052551,369.113159 
	C604.865112,362.181915 604.151550,352.989990 606.589478,343.295105 
	C611.087585,325.407928 628.246399,314.141083 646.313660,316.768799 
	C659.081421,318.625793 666.371887,328.154144 665.300049,341.583221 
	C663.713684,361.458496 639.113403,378.132629 620.154968,372.112427 
	C618.129211,371.469177 616.277405,370.278198 614.052551,369.113159 
z"/>
</svg>